<?xml version="1.0" encoding="UTF-8" standalone="no"?>
<svg
   xmlns:dc="http://purl.org/dc/elements/1.1/"
   xmlns:cc="http://creativecommons.org/ns#"
   xmlns:rdf="http://www.w3.org/1999/02/22-rdf-syntax-ns#"
   xmlns:svg="http://www.w3.org/2000/svg"
   xmlns="http://www.w3.org/2000/svg"
   viewBox="0 0 1440 2133.3333"
   height="2133.3333"
   width="1440"
   xml:space="preserve"
   id="svg2"
   version="1.1"><metadata
     id="metadata8"><rdf:RDF><cc:Work
         rdf:about=""><dc:format>image/svg+xml</dc:format><dc:type
           rdf:resource="http://purl.org/dc/dcmitype/StillImage" /></cc:Work></rdf:RDF></metadata><defs
     id="defs6"><clipPath
       id="clipPath24"
       clipPathUnits="userSpaceOnUse"><path
         id="path22"
         d="M 0,1600 H 1080 V 0 H 0 Z" /></clipPath><clipPath
       id="clipPath32"
       clipPathUnits="userSpaceOnUse"><path
         id="path30"
         d="M 213.921,1600.01 H 327.936 V 847.574 H 213.921 Z" /></clipPath><clipPath
       id="clipPath48"
       clipPathUnits="userSpaceOnUse"><path
         id="path46"
         d="M 100.507,1133.09 H 217.752 V 788.425 H 100.507 Z" /></clipPath><clipPath
       id="clipPath64"
       clipPathUnits="userSpaceOnUse"><path
         id="path62"
         d="m 516.745,1600 h 99.972 V 699.103 h -99.972 z" /></clipPath><clipPath
       id="clipPath80"
       clipPathUnits="userSpaceOnUse"><path
         id="path78"
         d="m 516.745,1015.56 h 4 V 826.185 h -4 z" /></clipPath><clipPath
       id="clipPath96"
       clipPathUnits="userSpaceOnUse"><path
         id="path94"
         d="M 845.713,1600 H 908.66 V 1163.58 H 845.713 Z" /></clipPath><clipPath
       id="clipPath112"
       clipPathUnits="userSpaceOnUse"><path
         id="path110"
         d="m 904.66,1337.24 h 4 v -336.99 h -4 z" /></clipPath><clipPath
       id="clipPath128"
       clipPathUnits="userSpaceOnUse"><path
         id="path126"
         d="m 905.208,1150.93 h 77.213 V 871.266 h -77.213 z" /></clipPath><clipPath
       id="clipPath144"
       clipPathUnits="userSpaceOnUse"><path
         id="path142"
         d="M 508.589,1612.2 H 697.182 V 440.63 H 508.589 Z" /></clipPath><clipPath
       id="clipPath160"
       clipPathUnits="userSpaceOnUse"><path
         id="path158"
         d="m 508.884,1027.76 h 20.355 V 828.392 h -20.355 z" /></clipPath><clipPath
       id="clipPath176"
       clipPathUnits="userSpaceOnUse"><path
         id="path174"
         d="m 434.032,835.579 h 86.852 v -596.92 h -86.852 z" /></clipPath><clipPath
       id="clipPath192"
       clipPathUnits="userSpaceOnUse"><path
         id="path190"
         d="m 516.745,618.374 h 4.139 V 132.373 h -4.139 z" /></clipPath><clipPath
       id="clipPath212"
       clipPathUnits="userSpaceOnUse"><path
         id="path210"
         d="M 0,1600 H 1080 V 0 H 0 Z" /></clipPath><clipPath
       id="clipPath220"
       clipPathUnits="userSpaceOnUse"><path
         id="path218"
         d="m 612.857,698.647 h 76.325 V 470.489 h -76.325 z" /></clipPath><clipPath
       id="clipPath236"
       clipPathUnits="userSpaceOnUse"><path
         id="path234"
         d="M 0,1600 H 1080 V 0 H 0 Z" /></clipPath><clipPath
       id="clipPath244"
       clipPathUnits="userSpaceOnUse"><path
         id="path242"
         d="m 607.192,1607.24 h 87.823 v -422.83 h -87.823 z" /></clipPath><clipPath
       id="clipPath260"
       clipPathUnits="userSpaceOnUse"><path
         id="path258"
         d="m 643.171,1410.72 h 15.557 v -372.47 h -15.557 z" /></clipPath><clipPath
       id="clipPath276"
       clipPathUnits="userSpaceOnUse"><path
         id="path274"
         d="m 544.081,1456.66 h 78.217 V 847.534 h -78.217 z" /></clipPath><clipPath
       id="clipPath292"
       clipPathUnits="userSpaceOnUse"><path
         id="path290"
         d="m 477.952,1607.24 h 81.755 v -346.27 h -81.755 z" /></clipPath><clipPath
       id="clipPath308"
       clipPathUnits="userSpaceOnUse"><path
         id="path306"
         d="m 478.02,1523.01 h 81.703 V 1038.25 H 478.02 Z" /></clipPath><clipPath
       id="clipPath324"
       clipPathUnits="userSpaceOnUse"><path
         id="path322"
         d="M 679.531,1607.24 H 827.422 V 878.159 H 679.531 Z" /></clipPath><clipPath
       id="clipPath340"
       clipPathUnits="userSpaceOnUse"><path
         id="path338"
         d="m 679.327,1159.66 h 81.709 V 656.129 h -81.709 z" /></clipPath><clipPath
       id="clipPath356"
       clipPathUnits="userSpaceOnUse"><path
         id="path354"
         d="M 812.591,1023.27 H 914.376 V 730.139 H 812.591 Z" /></clipPath><clipPath
       id="clipPath372"
       clipPathUnits="userSpaceOnUse"><path
         id="path370"
         d="M 252.415,1607.24 H 400.504 V 656.129 H 252.415 Z" /></clipPath><clipPath
       id="clipPath388"
       clipPathUnits="userSpaceOnUse"><path
         id="path386"
         d="m 318.197,1159.72 h 125.58 V 750.555 h -125.58 z" /></clipPath><clipPath
       id="clipPath404"
       clipPathUnits="userSpaceOnUse"><path
         id="path402"
         d="M 165.186,1023.31 H 267.188 V 815.853 H 165.186 Z" /></clipPath><clipPath
       id="clipPath420"
       clipPathUnits="userSpaceOnUse"><path
         id="path418"
         d="m 318.553,945.322 h 81.74 V 707.17 h -81.74 z" /></clipPath><clipPath
       id="clipPath436"
       clipPathUnits="userSpaceOnUse"><path
         id="path434"
         d="M 0,1600 H 1080 V 0 H 0 Z" /></clipPath><clipPath
       id="clipPath444"
       clipPathUnits="userSpaceOnUse"><path
         id="path442"
         d="M 205.109,1609.66 H 336.242 V 871.299 H 205.109 Z" /></clipPath><clipPath
       id="clipPath460"
       clipPathUnits="userSpaceOnUse"><path
         id="path458"
         d="M 92.2003,1141.75 H 226.287 V 778.765 H 92.2003 Z" /></clipPath><clipPath
       id="clipPath476"
       clipPathUnits="userSpaceOnUse"><path
         id="path474"
         d="m 837.575,1609.66 h 79.389 v -455.74 h -79.389 z" /></clipPath><clipPath
       id="clipPath492"
       clipPathUnits="userSpaceOnUse"><path
         id="path490"
         d="m 896.66,1346.9 h 20 V 990.588 h -20 z" /></clipPath><clipPath
       id="clipPath508"
       clipPathUnits="userSpaceOnUse"><path
         id="path506"
         d="m 896.781,1159.69 h 93.678 V 861.607 h -93.678 z" /></clipPath><clipPath
       id="clipPath524"
       clipPathUnits="userSpaceOnUse"><path
         id="path522"
         d="m 542.008,758.347 h 20 V 463.079 h -20 z" /></clipPath><clipPath
       id="clipPath540"
       clipPathUnits="userSpaceOnUse"><path
         id="path538"
         d="M 0,1600 H 1080 V 0 H 0 Z" /></clipPath><clipPath
       id="clipPath560"
       clipPathUnits="userSpaceOnUse"><path
         id="path558"
         d="M 0,1600 H 1080 V 0 H 0 Z" /></clipPath><clipPath
       id="clipPath576"
       clipPathUnits="userSpaceOnUse"><path
         id="path574"
         d="M 0,1600 H 1080 V 0 H 0 Z" /></clipPath><clipPath
       id="clipPath596"
       clipPathUnits="userSpaceOnUse"><path
         id="path594"
         d="M 0,1600 H 1080 V 0 H 0 Z" /></clipPath><clipPath
       id="clipPath640"
       clipPathUnits="userSpaceOnUse"><path
         id="path638"
         d="m 743.621,432.323 h 20 V 285.43 h -20 z" /></clipPath><clipPath
       id="clipPath656"
       clipPathUnits="userSpaceOnUse"><path
         id="path654"
         d="M 425.8,840.812 H 529.268 V 224.573 H 425.8 Z" /></clipPath><clipPath
       id="clipPath672"
       clipPathUnits="userSpaceOnUse"><path
         id="path670"
         d="m 508.53,623.606 h 20.74 V 118.287 h -20.74 z" /></clipPath><clipPath
       id="clipPath688"
       clipPathUnits="userSpaceOnUse"><path
         id="path686"
         d="m 677.114,805.441 h 86.705 V 122.714 h -86.705 z" /></clipPath><clipPath
       id="clipPath704"
       clipPathUnits="userSpaceOnUse"><path
         id="path702"
         d="M 391.124,1454.65 H 624.887 V 55.8565 H 391.124 Z" /></clipPath><clipPath
       id="clipPath720"
       clipPathUnits="userSpaceOnUse"><path
         id="path718"
         d="m 467.544,455.523 h 20 V 176.787 h -20 z" /></clipPath><clipPath
       id="clipPath736"
       clipPathUnits="userSpaceOnUse"><path
         id="path734"
         d="m 604.803,620.606 h 20.139 V 329.144 h -20.139 z" /></clipPath><clipPath
       id="clipPath752"
       clipPathUnits="userSpaceOnUse"><path
         id="path750"
         d="m 316.332,924.561 h 86.686 V 339.43 h -86.686 z" /></clipPath><clipPath
       id="clipPath768"
       clipPathUnits="userSpaceOnUse"><path
         id="path766"
         d="m 382.732,668.606 h 20 V 497.1 h -20 z" /></clipPath></defs><g
     transform="matrix(1.3333333,0,0,-1.3333333,0,2133.3333)"
     id="g10"><path
       id="path12"
       style="fill:#ffffff;fill-opacity:1;fill-rule:nonzero;stroke:none"
       d="M 0,0 H 1080 V 1600 H 0 Z" /><g
       transform="translate(753.536,299.5162)"
       id="g14"><path
         id="path16"
         style="fill:none;stroke:#981914;stroke-width:4;stroke-linecap:butt;stroke-linejoin:miter;stroke-miterlimit:10;stroke-dasharray:none;stroke-opacity:1"
         d="M 0,0 V 127.574" /></g><g
       id="g18"><g
         clip-path="url(#clipPath24)"
         id="g20"><g
           id="g26"><g
             id="g28" /><g
             id="g40"><g
               style="opacity:0.42999303"
               id="g38"
               clip-path="url(#clipPath32)"><g
                 id="g36"
                 transform="translate(216.3236,1600)"><path
                   id="path34"
                   style="fill:none;stroke:#981914;stroke-width:4;stroke-linecap:butt;stroke-linejoin:miter;stroke-miterlimit:10;stroke-dasharray:none;stroke-opacity:1"
                   d="m 0,0 c -0.402,-155.921 -0.402,-312.415 -0.402,-468.908 5.589,-7.452 11.177,-13.041 16.767,-20.493 29.808,-46.575 61.479,-87.561 93.15,-130.411 0,-44.712 0,-87.561 0.098,-132.609" /></g></g></g></g><g
           id="g42"><g
             id="g44" /><g
             id="g56"><g
               style="opacity:0.42999303"
               id="g54"
               clip-path="url(#clipPath48)"><g
                 id="g52"
                 transform="translate(216.3236,1131.6865)"><path
                   id="path50"
                   style="fill:none;stroke:#981914;stroke-width:4;stroke-linecap:butt;stroke-linejoin:miter;stroke-miterlimit:10;stroke-dasharray:none;stroke-opacity:1"
                   d="M 0,0 -113.817,-116.127 V -343.261" /></g></g></g></g><g
           id="g58"><g
             id="g60" /><g
             id="g72"><g
               style="opacity:0.42999303"
               id="g70"
               clip-path="url(#clipPath64)"><g
                 id="g68"
                 transform="translate(518.7445,1600)"><path
                   id="path66"
                   style="fill:none;stroke:#981914;stroke-width:4;stroke-linecap:butt;stroke-linejoin:miter;stroke-miterlimit:10;stroke-dasharray:none;stroke-opacity:1"
                   d="m 0,0 v -584.44 l 95.972,-96.232 v -220.226" /></g></g></g></g><g
           id="g74"><g
             id="g76" /><g
             id="g88"><g
               style="opacity:0.42999303"
               id="g86"
               clip-path="url(#clipPath80)"><g
                 id="g84"
                 transform="translate(518.7445,1015.5596)"><path
                   id="path82"
                   style="fill:none;stroke:#981914;stroke-width:4;stroke-linecap:butt;stroke-linejoin:miter;stroke-miterlimit:10;stroke-dasharray:none;stroke-opacity:1"
                   d="M 0,0 V -189.375" /></g></g></g></g><g
           id="g90"><g
             id="g92" /><g
             id="g104"><g
               style="opacity:0.42999303"
               id="g102"
               clip-path="url(#clipPath96)"><g
                 id="g100"
                 transform="translate(906.66,1600)"><path
                   id="path98"
                   style="fill:none;stroke:#981914;stroke-width:4;stroke-linecap:butt;stroke-linejoin:miter;stroke-miterlimit:10;stroke-dasharray:none;stroke-opacity:1"
                   d="m 0,0 v -262.756 l -58.947,-74.354 v -99.31" /></g></g></g></g><g
           id="g106"><g
             id="g108" /><g
             id="g120"><g
               style="opacity:0.42999303"
               id="g118"
               clip-path="url(#clipPath112)"><g
                 id="g116"
                 transform="translate(906.66,1337.2441)"><path
                   id="path114"
                   style="fill:none;stroke:#981914;stroke-width:4;stroke-linecap:butt;stroke-linejoin:miter;stroke-miterlimit:10;stroke-dasharray:none;stroke-opacity:1"
                   d="m 0,0 v -173.664 -91.875 -71.458" /></g></g></g></g><g
           id="g122"><g
             id="g124" /><g
             id="g136"><g
               style="opacity:0.42999303"
               id="g134"
               clip-path="url(#clipPath128)"><g
                 id="g132"
                 transform="translate(906.66,1149.5513)"><path
                   id="path130"
                   style="fill:none;stroke:#981914;stroke-width:4;stroke-linecap:butt;stroke-linejoin:miter;stroke-miterlimit:10;stroke-dasharray:none;stroke-opacity:1"
                   d="M 0,0 73.761,-77.846 V -278.285" /></g></g></g></g><g
           id="g138"><g
             id="g140" /><g
             id="g152"><g
               style="opacity:0.42999303"
               id="g150"
               clip-path="url(#clipPath144)"><g
                 id="g148"
                 transform="translate(508.8842,1602.5444)"><path
                   id="path146"
                   style="fill:#981914;fill-opacity:1;fill-rule:nonzero;stroke:none"
                   d="m 0,0 v -85.979 -191.846 -197.662 c 0,-35.629 -0.665,-71.329 0,-106.953 0.089,-4.744 2.109,-8.248 5.415,-11.564 8.445,-8.467 16.89,-16.935 25.334,-25.403 21.297,-21.355 42.595,-42.71 63.892,-64.065 1.42,-1.423 2.84,-2.847 4.261,-4.271 -0.977,2.357 -1.953,4.714 -2.93,7.071 v -62.625 -111.092 -51.365 -50.853 -22.12 c 0,-5.831 -0.146,-10.216 5.265,-14.311 23.134,-17.509 46.5,-34.719 69.748,-52.076 0.755,-0.564 1.51,-1.128 2.265,-1.692 -1.651,2.878 -3.301,5.757 -4.953,8.635 v -99.774 -14.31 c 0,-12.869 20,-12.891 20,0 v 90.589 19.379 c 0,5.403 -0.503,9.383 -5.413,13.095 -11.694,8.84 -23.496,17.542 -35.242,26.312 -12.208,9.115 -24.415,18.23 -36.622,27.344 1.65,-2.879 3.302,-5.757 4.952,-8.635 v 83.373 78.748 117.284 c 0,7.957 0.498,16.096 0,24.042 -0.329,5.259 -3.809,8.006 -7.188,11.394 -4.908,4.921 -9.814,9.841 -14.721,14.761 -25.095,25.163 -50.19,50.326 -75.286,75.489 -0.568,0.571 -1.137,1.141 -1.706,1.711 0.976,-2.357 1.953,-4.714 2.929,-7.071 v 58.441 139.132 169.357 145.427 c 0,23.647 0.875,47.482 0,71.118 -0.012,0.32 0,0.644 0,0.965 C 20,12.869 0,12.891 0,0" /></g></g></g></g><g
           id="g154"><g
             id="g156" /><g
             id="g168"><g
               style="opacity:0.42999303"
               id="g166"
               clip-path="url(#clipPath160)"><g
                 id="g164"
                 transform="translate(508.8842,1018.1046)"><path
                   id="path162"
                   style="fill:#981914;fill-opacity:1;fill-rule:nonzero;stroke:none"
                   d="m 0,0 c 0.472,-60.017 0.474,-120.037 0,-180.054 -0.102,-12.872 19.898,-12.884 20,0 C 20.474,-120.037 20.472,-60.017 20,0 19.899,12.864 -0.101,12.894 0,0" /></g></g></g></g><g
           id="g170"><g
             id="g172" /><g
             id="g184"><g
               style="opacity:0.42999303"
               id="g182"
               clip-path="url(#clipPath176)"><g
                 id="g180"
                 transform="translate(518.8842,835.5787)"><path
                   id="path178"
                   style="fill:none;stroke:#981914;stroke-width:4;stroke-linecap:butt;stroke-linejoin:miter;stroke-miterlimit:10;stroke-dasharray:none;stroke-opacity:1"
                   d="m 0,0 v -229.205 l -82.852,-97.715 v -270" /></g></g></g></g><g
           id="g186"><g
             id="g188" /><g
             id="g200"><g
               style="opacity:0.42999303"
               id="g198"
               clip-path="url(#clipPath192)"><g
                 id="g196"
                 transform="translate(518.8842,618.3736)"><path
                   id="path194"
                   style="fill:none;stroke:#981914;stroke-width:4;stroke-linecap:butt;stroke-linejoin:miter;stroke-miterlimit:10;stroke-dasharray:none;stroke-opacity:1"
                   d="M 0,0 -0.14,-486" /></g></g></g></g></g></g><g
       transform="translate(687.1815,800.0001)"
       id="g202"><path
         id="path204"
         style="fill:none;stroke:#981914;stroke-width:4;stroke-linecap:butt;stroke-linejoin:miter;stroke-miterlimit:10;stroke-dasharray:none;stroke-opacity:1"
         d="M 0,0 66.354,-62.617 V -372.91 L 0,-424.626 v -153" /></g><g
       id="g206"><g
         clip-path="url(#clipPath212)"
         id="g208"><g
           id="g214"><g
             id="g216" /><g
             id="g228"><g
               style="opacity:0.42999303"
               id="g226"
               clip-path="url(#clipPath220)"><g
                 id="g224"
                 transform="translate(614.8563,698.647)"><path
                   id="path222"
                   style="fill:none;stroke:#981914;stroke-width:4;stroke-linecap:butt;stroke-linejoin:miter;stroke-miterlimit:10;stroke-dasharray:none;stroke-opacity:1"
                   d="m 0,0 v -83.273 l 72.325,-54 v -90.885" /></g></g></g></g></g></g><g
       id="g230"><g
         clip-path="url(#clipPath236)"
         id="g232"><g
           id="g238"><g
             id="g240" /><g
             id="g252"><g
               style="opacity:0.30999804"
               id="g250"
               clip-path="url(#clipPath244)"><g
                 id="g248"
                 transform="translate(607.2167,1600)"><path
                   id="path246"
                   style="fill:#981914;fill-opacity:1;fill-rule:nonzero;stroke:none"
                   d="m 0,0 v -117.893 -26.333 c 0,-4.662 -0.464,-8.266 2.633,-12.217 11.68,-14.903 23.453,-29.735 35.179,-44.602 12.283,-15.574 24.566,-31.147 36.85,-46.721 -0.732,1.768 -1.465,3.536 -2.197,5.304 v -145.18 -20.705 c 0,-9.652 15,-9.668 15,0 v 123.764 30.654 c 0,4.231 1.225,11.343 -1.024,15.252 -2.787,4.844 -7.26,9.237 -10.701,13.598 -7.668,9.722 -15.336,19.444 -23.005,29.167 l -39.931,50.628 c 0.732,-1.768 1.465,-3.536 2.196,-5.303 l 0,131.736 V 0 C 15,9.652 0,9.667 0,0" /></g></g></g></g><g
           id="g254"><g
             id="g256" /><g
             id="g268"><g
               style="opacity:0.30999804"
               id="g266"
               clip-path="url(#clipPath260)"><g
                 id="g264"
                 transform="translate(643.4491,1403.4751)"><path
                   id="path262"
                   style="fill:#981914;fill-opacity:1;fill-rule:nonzero;stroke:none"
                   d="m 0,0 v -35.707 -85.235 -103.595 -89.183 c 0,-14.497 -0.627,-29.152 0,-43.64 0.009,-0.205 0,-0.413 0,-0.619 0,-9.652 15,-9.667 15,0 v 35.707 85.236 103.594 89.183 c 0,14.497 0.628,29.153 0,43.64 C 14.991,-0.414 15,-0.206 15,0 15,9.652 0,9.668 0,0" /></g></g></g></g><g
           id="g270"><g
             id="g272" /><g
             id="g284"><g
               style="opacity:0.30999804"
               id="g282"
               clip-path="url(#clipPath276)"><g
                 id="g280"
                 transform="translate(607.2167,1449.4126)"><path
                   id="path278"
                   style="fill:#981914;fill-opacity:1;fill-rule:nonzero;stroke:none"
                   d="m 0,0 v -143.026 -20.307 c 0.342,1.262 0.683,2.524 1.024,3.786 -18.226,-27.408 -36.452,-54.814 -54.678,-82.222 -3.892,-5.852 -9.141,-11.303 -9.141,-18.567 v -26.783 -110.737 -126.349 c 0,-23.08 -0.767,-46.306 0,-69.376 0.012,-0.35 0,-0.702 0,-1.053 0,-9.651 15,-9.667 15,0 v 114.378 180.976 41.52 c -0.342,-1.261 -0.683,-2.523 -1.024,-3.785 9.824,14.772 19.647,29.544 29.47,44.316 l 21.036,31.63 c 3.939,5.924 8.3,11.735 11.89,17.88 2.014,3.448 1.423,7.704 1.423,11.569 v 26.844 77.509 L 15,0 C 15,9.652 0,9.668 0,0" /></g></g></g></g><g
           id="g286"><g
             id="g288" /><g
             id="g300"><g
               style="opacity:0.30999804"
               id="g298"
               clip-path="url(#clipPath292)"><g
                 id="g296"
                 transform="translate(544.4218,1600)"><path
                   id="path294"
                   style="fill:#981914;fill-opacity:1;fill-rule:nonzero;stroke:none"
                   d="m 0,0 v -84.233 c 0.732,1.767 1.465,3.535 2.196,5.303 -10.955,-13.906 -21.911,-27.811 -32.867,-41.717 -11.108,-14.099 -23.111,-27.835 -33.479,-42.492 -3.082,-4.358 -2.204,-9.715 -2.204,-14.856 v -27.43 -76.43 -49.93 c 0,-9.652 15,-9.668 15,0 v 143.027 20.306 c -0.732,-1.768 -1.464,-3.535 -2.197,-5.303 17.478,22.184 34.956,44.367 52.435,66.551 3.788,4.808 7.577,9.617 11.365,14.425 2.219,2.816 4.572,5.301 4.751,9.092 0.642,13.625 0,27.435 0,41.073 L 15,0 C 15,9.652 0,9.667 0,0" /></g></g></g></g><g
           id="g302"><g
             id="g304" /><g
             id="g316"><g
               style="opacity:0.30999804"
               id="g314"
               clip-path="url(#clipPath308)"><g
                 id="g312"
                 transform="translate(544.4218,1515.7666)"><path
                   id="path310"
                   style="fill:#981914;fill-opacity:1;fill-rule:nonzero;stroke:none"
                   d="m 0,0 v -83.513 -133.256 -30.782 c 0.732,1.767 1.465,3.535 2.196,5.303 -22.016,-25.404 -44.641,-50.388 -66.097,-76.267 -3.054,-3.683 -2.453,-7.657 -2.453,-12.098 v -23.824 -69.588 -46.246 c 0,-9.651 15,-9.667 15,0 v 127.979 18.178 c -0.732,-1.767 -1.464,-3.535 -2.197,-5.303 16.705,19.274 33.409,38.548 50.113,57.823 3.991,4.604 7.981,9.209 11.972,13.813 2.275,2.625 5.76,5.725 6.332,9.233 0.704,4.32 0.134,9.093 0.134,13.445 v 79.216 99.113 c 0,18.585 0.679,37.313 0,55.888 C 14.989,-0.591 15,-0.295 15,0 15,9.652 0,9.668 0,0" /></g></g></g></g><g
           id="g318"><g
             id="g320" /><g
             id="g332"><g
               style="opacity:0.30999804"
               id="g330"
               clip-path="url(#clipPath324)"><g
                 id="g328"
                 transform="translate(679.6815,1600)"><path
                   id="path326"
                   style="fill:#981914;fill-opacity:1;fill-rule:nonzero;stroke:none"
                   d="m 0,0 v -113.754 c 0,-16.789 -0.34,-33.619 0,-50.405 0.098,-4.826 2.618,-7.491 5.71,-10.82 6.767,-7.288 13.533,-14.576 20.3,-21.864 14.18,-15.273 28.36,-30.546 42.541,-45.818 -0.733,1.767 -1.465,3.536 -2.197,5.303 v -132.964 -69.598 c 0,-4.875 -0.765,-9.6 2.48,-13.631 5.679,-7.053 11.532,-13.972 17.297,-20.955 l 48.773,-59.092 c -0.731,1.768 -1.464,3.536 -2.196,5.304 v -62.718 -100.568 -23.016 c 0,-9.652 15,-9.668 15,0 v 124.532 58.5 c 0,1.078 0.074,2.186 0,3.262 -0.234,3.418 -2.446,5.613 -4.487,8.086 l -19.676,23.838 -44.388,53.777 c 0.733,-1.768 1.465,-3.535 2.197,-5.303 v 129.075 70.836 c 0,4.058 1.125,10.681 -1.024,14.42 -1.241,2.16 -3.517,4.044 -5.186,5.842 -3.612,3.889 -7.223,7.778 -10.833,11.668 -17.169,18.491 -34.338,36.982 -51.507,55.474 0.732,-1.768 1.464,-3.536 2.196,-5.304 l 0,145.187 V 0 C 15,9.652 0,9.667 0,0" /></g></g></g></g><g
           id="g334"><g
             id="g336" /><g
             id="g348"><g
               style="opacity:0.30999804"
               id="g346"
               clip-path="url(#clipPath340)"><g
                 id="g344"
                 transform="translate(694.6815,663.3736)"><path
                   id="path342"
                   style="fill:#981914;fill-opacity:1;fill-rule:nonzero;stroke:none"
                   d="m 0,0 v 40.895 98.197 118.286 102.76 34.008 c 0,5.215 0.595,10.83 0,16.021 -0.026,0.232 0,0.482 0,0.717 -0.732,-1.768 -1.464,-3.535 -2.196,-5.303 19.359,22.71 38.718,45.42 58.079,68.131 2.758,3.236 5.516,6.471 8.274,9.707 -4.267,1.768 -8.535,3.536 -12.803,5.303 v -110.538 -15.79 c 0,-9.651 15,-9.667 15,0 v 110.539 15.789 c 0,6.117 -8.46,10.398 -12.803,5.303 C 31.476,468.13 8.727,442.684 -12.729,416.275 -16.681,411.411 -15,402.053 -15,396.218 V 353.472 217.921 76.388 c 0,-25.041 -0.74,-50.209 0,-75.243 0.012,-0.381 0,-0.764 0,-1.145 0,-9.652 15,-9.668 15,0" /></g></g></g></g><g
           id="g350"><g
             id="g352" /><g
             id="g364"><g
               style="opacity:0.30999804"
               id="g362"
               clip-path="url(#clipPath356)"><g
                 id="g360"
                 transform="translate(814.5858,1010.2564)"><path
                   id="path358"
                   style="fill:#981914;fill-opacity:1;fill-rule:nonzero;stroke:none"
                   d="m 0,0 c 25.358,-28.341 50.717,-56.683 76.074,-85.024 3.566,-3.985 7.131,-7.97 10.697,-11.955 -0.732,1.768 -1.464,3.536 -2.197,5.304 v -61.108 -97.529 -22.561 c 0,-9.651 15,-9.668 15,0 v 136.571 33 c 0,5.347 1.237,12.472 -2.203,16.937 -3.801,4.934 -8.42,9.411 -12.569,14.048 L 57.31,-41.59 C 41.742,-24.191 26.175,-6.792 10.607,10.607 4.157,17.816 -6.422,7.178 0,0" /></g></g></g></g><g
           id="g366"><g
             id="g368" /><g
             id="g380"><g
               style="opacity:0.30999804"
               id="g378"
               clip-path="url(#clipPath372)"><g
                 id="g376"
                 transform="translate(385.1469,1600)"><path
                   id="path374"
                   style="fill:#981914;fill-opacity:1;fill-rule:nonzero;stroke:none"
                   d="m 0,0 v -145.187 -20.706 c 0.732,1.768 1.464,3.536 2.196,5.304 -14.933,-16.084 -29.867,-32.169 -44.801,-48.253 -6.886,-7.416 -13.941,-14.709 -20.673,-22.265 -3.46,-3.884 -3.076,-7.519 -3.076,-12.291 v -152.857 -51.649 c 0.732,1.768 1.464,3.535 2.197,5.303 -22.019,-26.676 -44.393,-53.094 -66.071,-80.047 -2.918,-3.627 -2.48,-6.96 -2.48,-11.228 v -21.315 -68.25 -92.138 -107.042 -111.932 -2.073 c 0,-9.653 15,-9.668 15,0 v 65.386 113.784 47.216 94.281 54.725 c 0,10.42 0.507,20.983 0,31.393 -0.025,0.513 0,1.032 0,1.547 -0.732,-1.768 -1.464,-3.536 -2.197,-5.304 14.089,17.069 28.176,34.137 42.265,51.205 7.308,8.854 14.616,17.708 21.924,26.562 2.019,2.447 4.138,4.586 4.362,7.983 0.086,1.316 0,2.668 0,3.985 v 153.1 53.405 c -0.732,-1.767 -1.465,-3.536 -2.197,-5.303 l 36.22,39.01 c 7.657,8.247 15.314,16.494 22.971,24.741 3.372,3.632 9.068,8.044 9.36,13.302 0.803,14.441 0,29.157 0,43.616 l 0,74.932 V 0 C 15,9.652 0,9.667 0,0" /></g></g></g></g><g
           id="g382"><g
             id="g384" /><g
             id="g396"><g
               style="opacity:0.30999804"
               id="g394"
               clip-path="url(#clipPath388)"><g
                 id="g392"
                 transform="translate(333.7929,1025.7681)"><path
                   id="path390"
                   style="fill:#981914;fill-opacity:1;fill-rule:nonzero;stroke:none"
                   d="m 0,0 c -0.807,42.107 -0.782,84.221 0,126.328 -4.911,-0.665 -9.822,-1.329 -14.732,-1.994 -0.664,3.456 -0.194,-0.276 -0.194,-1.361 0,-0.593 -0.049,-1.201 -0.009,-1.792 0.091,-1.335 -0.666,-1.479 0.238,0.789 l 14.732,-1.993 c -0.097,2.111 -0.034,4.239 -0.035,6.351 -4.268,-1.768 -8.536,-3.536 -12.803,-5.304 4.539,-5.692 9.734,-10.656 14.66,-15.987 C 6.886,99.596 11.062,93.265 15.827,87.569 24.865,76.765 34.52,66.502 44.046,56.133 48.508,51.277 53.207,47.078 52.955,40.09 52.669,32.149 51.911,24.226 51.676,16.274 51.232,1.214 51.377,-13.855 51.567,-28.918 c 0.184,-14.63 0.425,-29.263 0.202,-43.893 -0.111,-7.253 -2.027,-15.051 2.32,-21.212 7.332,-10.391 14.663,-20.78 21.994,-31.17 6.561,-9.296 13.12,-18.593 19.68,-27.888 l -1.024,3.785 v -103.885 -14.787 c 0,-9.652 15,-9.668 15,0 v 83.55 c 0,11.483 0.553,23.119 0,34.591 -0.185,3.849 -2.335,6.174 -4.456,9.179 -4.561,6.465 -9.123,12.929 -13.684,19.394 -8.757,12.409 -17.513,24.818 -26.269,37.227 l 1.024,-3.785 c 1.291,32.45 -0.444,64.917 0.161,97.375 0.149,7.968 0.439,15.935 0.955,23.888 0.544,8.366 0.605,15.168 -3.709,22.695 -3.675,6.413 -10.355,11.949 -15.363,17.38 -5.383,5.839 -10.757,11.687 -15.984,17.666 -5.695,6.514 -11.181,13.188 -16.366,20.114 -5.438,7.262 -12.563,13.199 -18.245,20.325 -4.212,5.282 -12.806,0.708 -12.803,-5.303 10e-4,-2.112 -0.062,-4.24 0.035,-6.351 0.402,-8.839 11.668,-9.69 14.732,-1.994 1.07,2.689 0.497,7.57 -0.035,10.339 -1.633,8.508 -14.58,6.229 -14.732,-1.994 C -15.782,84.221 -15.807,42.107 -15,0 -14.815,-9.64 0.185,-9.672 0,0" /></g></g></g></g><g
           id="g398"><g
             id="g400" /><g
             id="g412"><g
               style="opacity:0.30999804"
               id="g410"
               clip-path="url(#clipPath404)"><g
                 id="g408"
                 transform="translate(254.6356,1020.8633)"><path
                   id="path406"
                   style="fill:#981914;fill-opacity:1;fill-rule:nonzero;stroke:none"
                   d="m 0,0 c -25.196,-28.867 -50.635,-57.528 -76.713,-85.602 -3.056,-3.29 -6.209,-6.505 -9.202,-9.851 -4.043,-4.52 -3.512,-8.666 -3.512,-14.458 0.001,-9.707 0.006,-19.414 0.027,-29.121 0.043,-19.579 0.159,-39.158 0.433,-58.735 0.134,-9.645 15.134,-9.672 15,0 -0.445,31.869 -0.46,63.741 -0.46,95.612 -0.732,-1.767 -1.464,-3.535 -2.197,-5.303 29.768,31.655 58.659,64.117 87.23,96.851 C 16.929,-3.363 6.362,7.289 0,0" /></g></g></g></g><g
           id="g414"><g
             id="g416" /><g
             id="g428"><g
               style="opacity:0.30999804"
               id="g426"
               clip-path="url(#clipPath420)"><g
                 id="g424"
                 transform="translate(387.3432,943.2589)"><path
                   id="path422"
                   style="fill:#981914;fill-opacity:1;fill-rule:nonzero;stroke:none"
                   d="m 0,0 c -12.76,-11.824 -25.521,-23.648 -38.282,-35.472 -7.534,-6.981 -15.068,-13.962 -22.602,-20.944 -3.615,-3.349 -7.47,-5.877 -7.666,-11.248 -0.539,-14.763 0,-29.649 0,-44.42 v -72.365 -44.395 c 0,-9.652 15,-9.667 15,0 v 141.758 20.299 c -0.733,-1.768 -1.465,-3.536 -2.197,-5.303 19.364,17.943 38.728,35.885 58.092,53.828 l 8.262,7.656 C 17.703,-4.031 7.077,6.557 0,0" /></g></g></g></g></g></g><g
       id="g430"><g
         clip-path="url(#clipPath436)"
         id="g432"><g
           id="g438"><g
             id="g440" /><g
             id="g452"><g
               style="opacity:0.42999303"
               id="g450"
               clip-path="url(#clipPath444)"><g
                 id="g448"
                 transform="translate(206.3236,1600)"><path
                   id="path446"
                   style="fill:#981914;fill-opacity:1;fill-rule:nonzero;stroke:none"
                   d="m 0,0 c 0.024,-88.769 0.357,-177.537 0.27,-266.306 -0.045,-44.696 -0.196,-89.394 -0.547,-134.09 -0.087,-10.939 -0.184,-21.879 -0.296,-32.819 -0.114,-11.174 -1.093,-22.694 -0.388,-33.84 0.31,-4.909 2.729,-8.943 6.211,-12.301 3.471,-3.348 6.229,-6.259 9.038,-10.222 6.078,-8.574 12.143,-17.157 18.171,-25.767 13.215,-18.875 26.13,-37.942 38.879,-57.134 12.514,-18.839 28.576,-35.077 40.066,-54.623 -0.455,1.682 -0.91,3.364 -1.365,5.047 -1.958,-32.301 -1.014,-64.663 -0.396,-96.99 0.245,-12.854 20.246,-12.896 20,0 -0.476,24.92 -1.166,49.851 -0.549,74.776 0.152,6.126 0.382,12.251 0.719,18.369 0.174,3.157 0.312,5.973 -1.14,8.892 -1.418,2.852 -3.383,5.593 -5.152,8.233 -6.507,9.713 -13.961,18.755 -21.228,27.898 -14.404,18.122 -26.522,37.979 -39.645,57.031 -6.53,9.48 -13.125,18.915 -19.753,28.325 -6.544,9.289 -12.603,20.368 -21.007,28.073 -0.903,0.828 -2.054,2.286 -3.137,2.849 -1.971,1.024 0.286,-0.635 0.313,-0.465 0.399,2.555 0.067,5.374 0.098,7.965 0.08,6.635 0.154,13.269 0.224,19.905 0.132,12.597 0.246,25.195 0.344,37.793 0.199,25.501 0.333,51.002 0.419,76.504 0.171,50.63 0.154,101.261 0.085,151.892 C 20.157,-114.003 20.016,-57.002 20,0 19.997,12.869 -0.003,12.891 0,0" /></g></g></g></g><g
           id="g454"><g
             id="g456" /><g
             id="g468"><g
               style="opacity:0.42999303"
               id="g466"
               clip-path="url(#clipPath460)"><g
                 id="g464"
                 transform="translate(209.2528,1138.7578)"><path
                   id="path462"
                   style="fill:#981914;fill-opacity:1;fill-rule:nonzero;stroke:none"
                   d="m 0,0 c -17.339,-17.69 -34.677,-35.381 -52.016,-53.072 -20.204,-20.613 -40.795,-40.914 -60.642,-61.872 -4.791,-5.06 -4.088,-10.51 -4.088,-16.897 v -36.037 -109.532 c 0,-23.9 -0.69,-47.914 0,-71.805 0.011,-0.372 0,-0.745 0,-1.117 0,-12.87 20,-12.891 20,0 v 76.704 122.301 28.129 c -0.976,-2.357 -1.953,-4.714 -2.929,-7.071 33.187,33.86 66.374,67.721 99.561,101.581 4.752,4.849 9.504,9.697 14.256,14.546 C 23.159,-4.943 9.028,9.211 0,0" /></g></g></g></g><g
           id="g470"><g
             id="g472" /><g
             id="g484"><g
               style="opacity:0.42999303"
               id="g482"
               clip-path="url(#clipPath476)"><g
                 id="g480"
                 transform="translate(896.66,1600)"><path
                   id="path478"
                   style="fill:#981914;fill-opacity:1;fill-rule:nonzero;stroke:none"
                   d="m 0,0 v -88.675 -141.456 -32.625 c 0.977,2.358 1.953,4.714 2.929,7.071 -17.684,-22.306 -35.368,-44.612 -53.052,-66.919 -2.397,-3.021 -5.498,-6.106 -7.459,-9.459 -2.143,-3.664 -1.365,-9.277 -1.365,-13.356 v -50.792 -40.209 c 0,-12.869 20,-12.89 20,0 v 86.854 12.456 c -0.977,-2.357 -1.952,-4.714 -2.929,-7.071 16.304,20.565 32.607,41.13 48.911,61.695 4.392,5.54 12.662,13.126 12.965,20.504 0.249,6.054 0,12.172 0,18.23 v 85.602 101.394 c 0,18.595 0.684,37.335 0,55.921 C 19.99,-0.558 20,-0.278 20,0 20,12.869 0,12.89 0,0" /></g></g></g></g><g
           id="g486"><g
             id="g488" /><g
             id="g500"><g
               style="opacity:0.42999303"
               id="g498"
               clip-path="url(#clipPath492)"><g
                 id="g496"
                 transform="translate(896.66,1337.2441)"><path
                   id="path494"
                   style="fill:#981914;fill-opacity:1;fill-rule:nonzero;stroke:none"
                   d="m 0,0 v -148.193 -117.217 -71.587 c 0,-12.869 20,-12.89 20,0 V -199.277 -67.514 0 C 20,12.869 0,12.891 0,0" /></g></g></g></g><g
           id="g502"><g
             id="g504" /><g
             id="g516"><g
               style="opacity:0.42999303"
               id="g514"
               clip-path="url(#clipPath508)"><g
                 id="g512"
                 transform="translate(899.5887,1142.48)"><path
                   id="path510"
                   style="fill:#981914;fill-opacity:1;fill-rule:nonzero;stroke:none"
                   d="m 0,0 c 21.527,-22.72 43.056,-45.439 64.583,-68.159 3.06,-3.229 6.118,-6.458 9.178,-9.687 -0.977,2.357 -1.952,4.715 -2.929,7.072 v -67.786 -107.969 -24.684 c 0,-12.869 20,-12.891 20,0 v 131.224 63.991 c 0,1.654 0.085,3.335 0,4.988 -0.202,3.905 -2.046,6.374 -4.505,8.97 -6.96,7.346 -13.921,14.691 -20.881,22.037 C 48.345,-21.955 31.244,-3.906 14.143,14.142 5.271,23.504 -8.854,9.345 0,0" /></g></g></g></g><g
           id="g518"><g
             id="g520" /><g
             id="g532"><g
               style="opacity:0.42999303"
               id="g530"
               clip-path="url(#clipPath524)"><g
                 id="g528"
                 transform="translate(562.0077,472.7388)"><path
                   id="path526"
                   style="fill:#981914;fill-opacity:1;fill-rule:nonzero;stroke:none"
                   d="m 0,0 v 93.691 148.121 34.137 c 0,12.868 -20,12.89 -20,0 V 182.257 34.136 0 c 0,-12.869 20,-12.891 20,0" /></g></g></g></g></g></g><g
       id="g534"><g
         clip-path="url(#clipPath540)"
         id="g536"><g
           transform="translate(614.7167,1600)"
           id="g542"><path
             id="path544"
             style="fill:none;stroke:#981914;stroke-width:4;stroke-linecap:butt;stroke-linejoin:miter;stroke-miterlimit:10;stroke-dasharray:none;stroke-opacity:1"
             d="m 0,0 v -150.587 l 72.465,-91.875 v -165.885" /></g></g></g><g
       transform="translate(650.9491,1403.4751)"
       id="g546"><path
         id="path548"
         style="fill:none;stroke:#981914;stroke-width:4;stroke-linecap:butt;stroke-linejoin:miter;stroke-miterlimit:10;stroke-dasharray:none;stroke-opacity:1"
         d="M 0,0 V -357.979" /></g><g
       transform="translate(614.7167,1449.4126)"
       id="g550"><path
         id="path552"
         style="fill:none;stroke:#981914;stroke-width:4;stroke-linecap:butt;stroke-linejoin:miter;stroke-miterlimit:10;stroke-dasharray:none;stroke-opacity:1"
         d="m 0,0 v -163.333 l -62.795,-94.427 v -336.874 -96.978 l -74.464,-73.213 v -234.298 l -76.31,-74.916 v -243" /></g><g
       id="g554"><g
         clip-path="url(#clipPath560)"
         id="g556"><g
           transform="translate(551.9218,1600)"
           id="g562"><path
             id="path564"
             style="fill:none;stroke:#981914;stroke-width:4;stroke-linecap:butt;stroke-linejoin:miter;stroke-miterlimit:10;stroke-dasharray:none;stroke-opacity:1"
             d="m 0,0 v -84.233 l -66.354,-84.219 v -163.333" /></g></g></g><g
       transform="translate(551.9218,1515.7666)"
       id="g566"><path
         id="path568"
         style="fill:none;stroke:#981914;stroke-width:4;stroke-linecap:butt;stroke-linejoin:miter;stroke-miterlimit:10;stroke-dasharray:none;stroke-opacity:1"
         d="m 0,0 v -247.551 l -66.354,-76.563 v -146.157" /></g><g
       id="g570"><g
         clip-path="url(#clipPath576)"
         id="g572"><g
           transform="translate(687.1815,1600)"
           id="g578"><path
             id="path580"
             style="fill:none;stroke:#981914;stroke-width:4;stroke-linecap:butt;stroke-linejoin:miter;stroke-miterlimit:10;stroke-dasharray:none;stroke-opacity:1"
             d="m 0,0 v -165.893 l 66.354,-71.465 v -210.546 l 66.354,-80.39 v -186.302" /></g></g></g><g
       transform="translate(687.1815,663.3736)"
       id="g582"><path
         id="path584"
         style="fill:none;stroke:#981914;stroke-width:4;stroke-linecap:butt;stroke-linejoin:miter;stroke-miterlimit:10;stroke-dasharray:none;stroke-opacity:1"
         d="m 0,0 v 410.884 l 66.354,77.838 V 362.394" /></g><g
       transform="translate(819.8895,1015.5596)"
       id="g586"><path
         id="path588"
         style="fill:none;stroke:#981914;stroke-width:4;stroke-linecap:butt;stroke-linejoin:miter;stroke-miterlimit:10;stroke-dasharray:none;stroke-opacity:1"
         d="M 0,0 86.771,-96.979 V -278.176" /></g><g
       id="g590"><g
         clip-path="url(#clipPath596)"
         id="g592"><g
           transform="translate(392.6469,1600)"
           id="g598"><path
             id="path600"
             style="fill:none;stroke:#981914;stroke-width:4;stroke-linecap:butt;stroke-linejoin:miter;stroke-miterlimit:10;stroke-dasharray:none;stroke-opacity:1"
             d="m 0,0 v -165.893 l -66.354,-71.465 v -210.546 l -66.354,-80.39 v -186.302 -222.03" /></g><g
           transform="translate(326.2929,1025.7681)"
           id="g602"><path
             id="path604"
             style="fill:none;stroke:#981914;stroke-width:4;stroke-linecap:butt;stroke-linejoin:miter;stroke-miterlimit:10;stroke-dasharray:none;stroke-opacity:1"
             d="m 0,0 c -0.817,41.981 -0.817,82.968 0,126.328 0.167,-0.197 0,-14.221 0,0 4.772,-6.099 10.361,-11.689 15.95,-17.278 14.904,-20.493 31.672,-37.26 48.439,-55.89 1.863,-3.726 3.726,-7.452 3.726,-11.179 -3.726,-42.849 0,-87.561 -1.761,-129.793 l 43.385,-61.484 v -118.672" /></g><g
           transform="translate(259.9389,1015.5596)"
           id="g606"><path
             id="path608"
             style="fill:none;stroke:#981914;stroke-width:4;stroke-linecap:butt;stroke-linejoin:miter;stroke-miterlimit:10;stroke-dasharray:none;stroke-opacity:1"
             d="m 0,0 c -27.614,-31.646 -57.422,-65.18 -87.23,-96.851 0,-31.671 0,-63.342 0.459,-95.612" /></g><g
           transform="translate(326.2929,714.4146)"
           id="g610"><path
             id="path612"
             style="fill:none;stroke:#981914;stroke-width:4;stroke-linecap:butt;stroke-linejoin:miter;stroke-miterlimit:10;stroke-dasharray:none;stroke-opacity:1"
             d="m 0,0 v 162.057 l 66.354,61.484 V 193.32" /></g><g
           transform="translate(477.4579,450.2896)"
           id="g614"><path
             id="path616"
             style="fill:none;stroke:#981914;stroke-width:4;stroke-linecap:butt;stroke-linejoin:miter;stroke-miterlimit:10;stroke-dasharray:none;stroke-opacity:1"
             d="M 0,0 V -259.416" /></g><g
           transform="translate(552.0077,753.3736)"
           id="g618"><path
             id="path620"
             style="fill:none;stroke:#981914;stroke-width:4;stroke-linecap:butt;stroke-linejoin:miter;stroke-miterlimit:10;stroke-dasharray:none;stroke-opacity:1"
             d="M 0,0 -0.086,-282.885 V 4.427" /></g><g
           transform="translate(614.8563,615.3736)"
           id="g622"><path
             id="path624"
             style="fill:none;stroke:#981914;stroke-width:4;stroke-linecap:butt;stroke-linejoin:miter;stroke-miterlimit:10;stroke-dasharray:none;stroke-opacity:1"
             d="M 0,0 -0.14,-272.143" /></g><g
           transform="translate(392.6469,919.3277)"
           id="g626"><path
             id="path628"
             style="fill:none;stroke:#981914;stroke-width:4;stroke-linecap:butt;stroke-linejoin:miter;stroke-miterlimit:10;stroke-dasharray:none;stroke-opacity:1"
             d="M 0,0 V -255.954 L -66.354,-334.76 V -565.812" /></g><g
           transform="translate(392.6469,663.3736)"
           id="g630"><path
             id="path632"
             style="fill:none;stroke:#981914;stroke-width:4;stroke-linecap:butt;stroke-linejoin:miter;stroke-miterlimit:10;stroke-dasharray:none;stroke-opacity:1"
             d="M 0,0 V -152.187" /></g><g
           id="g634"><g
             id="g636" /><g
             id="g648"><g
               style="opacity:0.42999303"
               id="g646"
               clip-path="url(#clipPath640)"><g
                 id="g644"
                 transform="translate(763.621,295.0894)"><path
                   id="path642"
                   style="fill:#981914;fill-opacity:1;fill-rule:nonzero;stroke:none"
                   d="m 0,0 v 111.931 15.643 c 0,12.869 -20,12.891 -20,0 V 15.644 0 c 0,-12.869 20,-12.891 20,0" /></g></g></g></g><g
           id="g650"><g
             id="g652" /><g
             id="g664"><g
               style="opacity:0.42999303"
               id="g662"
               clip-path="url(#clipPath656)"><g
                 id="g660"
                 transform="translate(508.9701,831.1519)"><path
                   id="path658"
                   style="fill:#981914;fill-opacity:1;fill-rule:nonzero;stroke:none"
                   d="m 0,0 v -77.242 -123.687 -28.276 c 0.977,2.356 1.953,4.714 2.929,7.071 -18.245,-21.518 -36.49,-43.036 -54.735,-64.553 -8.767,-10.34 -17.535,-20.68 -26.302,-31.021 -2.451,-2.891 -4.558,-5.563 -4.745,-9.651 -0.097,-2.129 0,-4.287 0,-6.417 v -82.461 -113.334 c 0,-22.07 -0.714,-44.273 0,-66.334 0.012,-0.337 0,-0.677 0,-1.015 0,-12.869 20,-12.89 20,0 v 91.217 145.398 33.385 c -0.976,-2.356 -1.952,-4.714 -2.928,-7.07 15.735,18.556 31.469,37.114 47.204,55.672 9.488,11.188 18.975,22.378 28.462,33.567 4.23,4.988 9.913,9.963 10.115,16.815 0.617,20.943 0,41.997 0,62.946 v 102.133 c 0,20.593 0.671,41.314 0,61.9 C 19.99,-0.639 20,-0.318 20,0 20,12.869 0,12.891 0,0" /></g></g></g></g><g
           id="g666"><g
             id="g668" /><g
             id="g680"><g
               style="opacity:0.42999303"
               id="g678"
               clip-path="url(#clipPath672)"><g
                 id="g676"
                 transform="translate(508.9701,613.9468)"><path
                   id="path674"
                   style="fill:#981914;fill-opacity:1;fill-rule:nonzero;stroke:none"
                   d="m 0,0 c -0.004,-16.214 -0.009,-32.428 -0.014,-48.642 -0.011,-38.582 -0.022,-77.165 -0.033,-115.747 -0.014,-46.805 -0.027,-93.61 -0.04,-140.416 l -0.036,-121.388 c -0.005,-19.617 -0.699,-39.373 -0.016,-58.982 0.009,-0.274 -0.001,-0.551 -0.001,-0.825 -0.003,-12.869 19.997,-12.891 20,0 0.005,16.214 0.01,32.428 0.014,48.642 0.011,38.582 0.022,77.165 0.034,115.747 0.013,46.804 0.027,93.61 0.04,140.415 0.011,40.464 0.023,80.926 0.035,121.389 0.005,19.617 0.7,39.373 0.017,58.982 C 19.99,-0.551 20,-0.274 20,0 20.004,12.869 0.004,12.89 0,0" /></g></g></g></g><g
           id="g682"><g
             id="g684" /><g
             id="g696"><g
               style="opacity:0.42999303"
               id="g694"
               clip-path="url(#clipPath688)"><g
                 id="g692"
                 transform="translate(680.1962,788.5025)"><path
                   id="path690"
                   style="fill:#981914;fill-opacity:1;fill-rule:nonzero;stroke:none"
                   d="m 0,0 c 19.317,-18.229 38.634,-36.458 57.951,-54.687 2.801,-2.643 5.602,-5.287 8.403,-7.93 -0.976,2.357 -1.953,4.715 -2.929,7.071 v -105.021 -167.181 -38.091 c 0.976,2.357 1.953,4.714 2.929,7.071 -18.808,-14.659 -37.616,-29.318 -56.423,-43.977 -5.625,-4.384 -12.592,-7.802 -12.86,-15.732 -0.196,-5.818 0,-11.677 0,-17.498 v -168.958 -51.196 c 0,-12.869 20,-12.891 20,0 v 80.919 127.929 29.725 c -0.976,-2.357 -1.952,-4.714 -2.928,-7.071 13.265,10.34 26.532,20.68 39.798,31.02 7.515,5.857 15.03,11.713 22.544,17.571 3.929,3.061 6.704,5.338 6.94,11.02 0.369,8.861 0,17.816 0,26.681 v 54.873 138.76 c 0,29.096 0.444,58.229 0,87.323 -0.061,3.984 -1.35,7.317 -4.255,10.156 -5.595,5.465 -11.385,10.744 -17.073,16.112 -14.94,14.097 -29.879,28.196 -44.82,42.294 -1.045,0.986 -2.089,1.973 -3.134,2.959 C 4.785,22.972 -9.385,8.855 0,0" /></g></g></g></g><g
           id="g698"><g
             id="g700" /><g
             id="g712"><g
               style="opacity:0.42999303"
               id="g710"
               clip-path="url(#clipPath704)"><g
                 id="g708"
                 transform="translate(604.8026,1444.9858)"><path
                   id="path706"
                   style="fill:#981914;fill-opacity:1;fill-rule:nonzero;stroke:none"
                   d="m 0,0 v -153.896 c 0,-2.523 -0.671,-6.134 0,-8.588 0.759,-2.774 0.337,4.097 1.257,4.035 -0.25,0.017 -1.546,-2.325 -1.68,-2.526 -6.991,-10.513 -13.982,-21.026 -20.974,-31.54 -9.076,-13.647 -18.152,-27.295 -27.228,-40.942 -3.195,-4.806 -6.392,-9.612 -9.588,-14.418 -2.188,-3.291 -4.187,-5.754 -4.582,-9.885 -1.167,-12.212 0,-25.106 0,-37.356 v -87.468 -184.889 -115.909 -8.23 c 0.977,2.356 1.952,4.714 2.929,7.071 -17.499,-17.205 -34.998,-34.41 -52.497,-51.615 -7.144,-7.024 -14.805,-13.775 -21.55,-21.188 -4.101,-4.508 -3.346,-9.748 -3.346,-15.336 v -169.341 -57.102 c 0.977,2.357 1.953,4.714 2.929,7.071 l -65.291,-64.098 c -5.553,-5.453 -13.67,-10.902 -13.948,-19.249 -0.248,-7.456 0,-14.964 0,-22.423 v -216.712 -64.936 c 0,-12.869 20,-12.89 20,0 v 103.303 164.529 37.599 c -0.976,-2.357 -1.952,-4.714 -2.929,-7.071 17.351,17.033 34.701,34.066 52.051,51.099 7.798,7.656 16.011,15.058 23.472,23.044 4.282,4.582 3.716,9.241 3.716,14.911 v 169.526 57.705 c -0.976,-2.357 -1.952,-4.714 -2.928,-7.071 21.419,21.06 42.84,42.121 64.26,63.181 3.242,3.188 6.724,6.256 9.785,9.621 3.4,3.736 3.347,7.528 3.347,12.11 v 50.702 133.507 215.432 25.78 c 0,0.99 0.362,2.831 0,3.785 1.406,-3.694 -2.882,-6.732 -0.206,-3.285 1.331,1.713 2.432,3.657 3.634,5.464 18.378,27.636 36.757,55.272 55.136,82.908 2.127,3.201 3.975,5.497 4.231,9.602 0.189,3.038 0,6.15 0,9.193 v 45.82 L 20,-6.284 V 0 C 20,12.869 0,12.89 0,0" /></g></g></g></g><g
           id="g714"><g
             id="g716" /><g
             id="g728"><g
               style="opacity:0.42999303"
               id="g726"
               clip-path="url(#clipPath720)"><g
                 id="g724"
                 transform="translate(467.5439,445.8629)"><path
                   id="path722"
                   style="fill:#981914;fill-opacity:1;fill-rule:nonzero;stroke:none"
                   d="m 0,0 v -87.5 -139.637 -32.279 c 0,-12.869 20,-12.891 20,0 v 87.5 V -32.28 0 C 20,12.869 0,12.891 0,0" /></g></g></g></g><g
           id="g730"><g
             id="g732" /><g
             id="g744"><g
               style="opacity:0.42999303"
               id="g742"
               clip-path="url(#clipPath736)"><g
                 id="g740"
                 transform="translate(604.9423,610.9468)"><path
                   id="path738"
                   style="fill:#981914;fill-opacity:1;fill-rule:nonzero;stroke:none"
                   d="m 0,0 -0.047,-92.358 c -0.025,-48.684 -0.05,-97.368 -0.075,-146.052 l -0.018,-33.733 c -0.006,-12.87 19.994,-12.89 20,0 0.016,30.786 0.033,61.572 0.048,92.358 0.025,48.683 0.05,97.368 0.074,146.052 C 19.988,-22.489 19.994,-11.244 20,0 20.007,12.869 0.007,12.89 0,0" /></g></g></g></g><g
           id="g746"><g
             id="g748" /><g
             id="g760"><g
               style="opacity:0.42999303"
               id="g758"
               clip-path="url(#clipPath752)"><g
                 id="g756"
                 transform="translate(382.7323,914.9009)"><path
                   id="path754"
                   style="fill:#981914;fill-opacity:1;fill-rule:nonzero;stroke:none"
                   d="m 0,0 v -86.654 -137.915 -31.385 c 0.977,2.356 1.953,4.714 2.929,7.071 -15.543,-18.46 -31.086,-36.92 -46.629,-55.379 -6.442,-7.65 -12.99,-15.224 -19.331,-22.959 -4.019,-4.902 -3.323,-9.8 -3.323,-15.638 v -167.151 -55.802 c 0,-12.869 20,-12.89 20,0 v 78.18 124.477 28.395 c -0.976,-2.357 -1.953,-4.714 -2.929,-7.071 l 50.653,60.158 c 3.917,4.652 7.835,9.305 11.752,13.957 2.956,3.511 6.591,6.938 6.878,11.764 0.266,4.473 0,9.042 0,13.519 v 82.272 101.654 c 0,19.177 0.642,38.478 0,57.647 -0.009,0.286 0,0.574 0,0.86 C 20,12.869 0,12.891 0,0" /></g></g></g></g><g
           id="g762"><g
             id="g764" /><g
             id="g776"><g
               style="opacity:0.42999303"
               id="g774"
               clip-path="url(#clipPath768)"><g
                 id="g772"
                 transform="translate(382.7323,658.9468)"><path
                   id="path770"
                   style="fill:#981914;fill-opacity:1;fill-rule:nonzero;stroke:none"
                   d="m 0,0 v -133.59 -18.597 c 0,-12.869 20,-12.89 20,0 V -18.598 0 C 20,12.869 0,12.891 0,0" /></g></g></g></g><g
           transform="translate(401.1479,132.3736)"
           id="g778"><path
             id="path780"
             style="fill:none;stroke:#981914;stroke-width:4;stroke-linecap:butt;stroke-linejoin:miter;stroke-miterlimit:10;stroke-dasharray:none;stroke-opacity:1"
             d="M 0,0 V -55.286" /></g><g
           transform="translate(687.1815,222.3736)"
           id="g782"><path
             id="path784"
             style="fill:none;stroke:#981914;stroke-width:4;stroke-linecap:butt;stroke-linejoin:miter;stroke-miterlimit:10;stroke-dasharray:none;stroke-opacity:1"
             d="M 0,0 V -77.786" /></g></g></g><path
       id="path786"
       style="fill:#981914;fill-opacity:1;fill-rule:nonzero;stroke:none"
       d="m 765.977,954.948 h -24.883 v 24.882 h 24.883 z" /><path
       id="path788"
       style="fill:#981914;fill-opacity:1;fill-rule:nonzero;stroke:none"
       d="m 403.898,1319.503 h -35.483 v 35.483 h 35.483 z" /><path
       id="path790"
       style="fill:#981914;fill-opacity:1;fill-rule:nonzero;stroke:none"
       d="m 403.898,1262.89 h -35.483 v 35.483 h 35.483 z" /><path
       id="path792"
       style="fill:#981914;fill-opacity:1;fill-rule:nonzero;stroke:none"
       d="m 403.898,1206.744 h -35.483 v 35.483 h 35.483 z" /><path
       id="path794"
       style="fill:#981914;fill-opacity:1;fill-rule:nonzero;stroke:none"
       d="m 837.631,649.585 h -35.482 v 35.483 h 35.482 z" /><path
       id="path796"
       style="fill:#981914;fill-opacity:1;fill-rule:nonzero;stroke:none"
       d="m 837.631,592.971 h -35.482 v 35.483 h 35.482 z" /><path
       id="path798"
       style="fill:#981914;fill-opacity:1;fill-rule:nonzero;stroke:none"
       d="m 837.631,536.826 h -35.482 v 35.483 h 35.482 z" /><path
       id="path800"
       style="fill:#981914;fill-opacity:1;fill-rule:nonzero;stroke:none"
       d="m 765.977,906.887 h -24.883 v 24.882 h 24.883 z" /><path
       id="path802"
       style="fill:#981914;fill-opacity:1;fill-rule:nonzero;stroke:none"
       d="m 765.977,858.825 h -24.883 v 24.882 h 24.883 z" /><path
       id="path804"
       style="fill:#981914;fill-opacity:1;fill-rule:nonzero;stroke:none"
       d="m 283.37,384.71 h -24.883 v 24.883 h 24.883 z" /><path
       id="path806"
       style="fill:#981914;fill-opacity:1;fill-rule:nonzero;stroke:none"
       d="m 283.37,336.648 h -24.883 v 24.883 h 24.883 z" /><path
       id="path808"
       style="fill:#981914;fill-opacity:1;fill-rule:nonzero;stroke:none"
       d="m 283.37,288.586 h -24.883 v 24.883 h 24.883 z" /></g></svg>