<?xml version="1.0" encoding="UTF-8" standalone="no"?>
<svg
   xmlns:dc="http://purl.org/dc/elements/1.1/"
   xmlns:cc="http://creativecommons.org/ns#"
   xmlns:rdf="http://www.w3.org/1999/02/22-rdf-syntax-ns#"
   xmlns:svg="http://www.w3.org/2000/svg"
   xmlns="http://www.w3.org/2000/svg"
   viewBox="0 0 1293.3333 666.66669"
   height="666.66669"
   width="1293.3333"
   xml:space="preserve"
   id="svg2"
   version="1.1"><metadata
     id="metadata8"><rdf:RDF><cc:Work
         rdf:about=""><dc:format>image/svg+xml</dc:format><dc:type
           rdf:resource="http://purl.org/dc/dcmitype/StillImage" /></cc:Work></rdf:RDF></metadata><defs
     id="defs6"><clipPath
       id="clipPath20"
       clipPathUnits="userSpaceOnUse"><path
         id="path18"
         d="M 0,500 H 970 V 0 H 0 Z" /></clipPath></defs><g
     transform="matrix(1.3333333,0,0,-1.3333333,0,666.66667)"
     id="g10"><path
       id="path12"
       style="fill:#f6f7f8;fill-opacity:1;fill-rule:nonzero;stroke:none"
       d="M 0,0 H 970 V 500 H 0 Z" /><g
       id="g14"><g
         clip-path="url(#clipPath20)"
         id="g16"><path
           id="path22"
           style="fill:none;stroke:#f6f7f8;stroke-width:1;stroke-linecap:butt;stroke-linejoin:miter;stroke-miterlimit:10;stroke-dasharray:none;stroke-opacity:1"
           d="M 980.648,509.172 H -7 v -523.12 h 987.648 z" /><g
           transform="translate(3.8056,-13.8832)"
           id="g24"><path
             id="path26"
             style="fill:#981914;fill-opacity:1;fill-rule:nonzero;stroke:none"
             d="m 0,0 c -0.003,0.113 -0.015,0.229 -0.036,0.342 0,0.002 0,0.003 -0.001,0.005 -0.024,0.231 -0.047,0.463 -0.073,0.694 -0.016,0.575 0.083,1.127 0.295,1.697 0.198,0.533 0.017,1.116 -0.343,1.541 L 263.496,282.151 0.405,521.544 c 0.015,0.453 -0.122,0.912 -0.415,1.251 0.216,0.197 0.37,0.458 0.415,0.787 0.385,2.788 0.61,5.59 0.82,8.395 L 276.397,281.589 0.327,-9.369 C 0.511,-6.265 0.322,-3.133 0,0" /></g><g
           transform="translate(3.8056,-13.8832)"
           id="g28"><path
             id="path30"
             style="fill:none;stroke:#981914;stroke-width:2;stroke-linecap:butt;stroke-linejoin:miter;stroke-miterlimit:10;stroke-dasharray:none;stroke-opacity:1"
             d="m 0,0 c -0.003,0.113 -0.015,0.229 -0.036,0.342 0,0.002 0,0.003 -0.001,0.005 -0.024,0.231 -0.047,0.463 -0.073,0.694 -0.016,0.575 0.083,1.127 0.295,1.697 0.198,0.533 0.017,1.116 -0.343,1.541 L 263.496,282.151 0.405,521.544 c 0.015,0.453 -0.122,0.912 -0.415,1.251 0.216,0.197 0.37,0.458 0.415,0.787 0.385,2.788 0.61,5.59 0.82,8.395 L 276.397,281.589 0.327,-9.369 C 0.511,-6.265 0.322,-3.133 0,0 Z" /></g><g
           transform="translate(253.5927,266.2457)"
           id="g32"><path
             id="path34"
             style="fill:#981914;fill-opacity:1;fill-rule:nonzero;stroke:none"
             d="m 0,0 -249.552,227.074 v 15.853 L 16.822,0.546 -249.552,-280.193 v 17.183 z" /></g><g
           transform="translate(253.5927,266.2457)"
           id="g36"><path
             id="path38"
             style="fill:none;stroke:#981914;stroke-width:2;stroke-linecap:butt;stroke-linejoin:miter;stroke-miterlimit:10;stroke-dasharray:none;stroke-opacity:1"
             d="m 0,0 -249.552,227.074 v 15.853 L 16.822,0.546 -249.552,-280.193 v 17.183 z" /></g><g
           transform="translate(4.0409,474.3111)"
           id="g40"><path
             id="path42"
             style="fill:#981914;fill-opacity:1;fill-rule:nonzero;stroke:none"
             d="M 0,0 V 19.009 L 249.552,-208.065 0,-471.075 v 23.194 l 228.062,240.361 z" /></g><g
           transform="translate(4.0409,474.3111)"
           id="g44"><path
             id="path46"
             style="fill:none;stroke:#981914;stroke-width:3;stroke-linecap:butt;stroke-linejoin:miter;stroke-miterlimit:10;stroke-dasharray:none;stroke-opacity:1"
             d="M 0,0 V 19.009 L 249.552,-208.065 0,-471.075 v 23.194 l 228.062,240.361 z" /></g><g
           transform="translate(207.6015,266.2457)"
           id="g48"><path
             id="path50"
             style="fill:#981914;fill-opacity:1;fill-rule:nonzero;stroke:none"
             d="m 0,0 -203.561,185.226 v 22.839 L 24.501,0.546 -203.561,-239.815 v 25.277 z" /></g><g
           transform="translate(207.6015,266.2457)"
           id="g52"><path
             id="path54"
             style="fill:none;stroke:#981914;stroke-width:2;stroke-linecap:butt;stroke-linejoin:miter;stroke-miterlimit:10;stroke-dasharray:none;stroke-opacity:1"
             d="m 0,0 -203.561,185.226 v 22.839 L 24.501,0.546 -203.561,-239.815 v 25.277 z" /></g><g
           transform="translate(974.2841,361.5679)"
           id="g56"><path
             id="path58"
             style="fill:#981914;fill-opacity:1;fill-rule:nonzero;stroke:none"
             d="M 0,0 -79.421,92.148 12.728,12.728 Z" /></g><g
           transform="translate(974.2841,239.9986)"
           id="g60"><path
             id="path62"
             style="fill:#981914;fill-opacity:1;fill-rule:nonzero;stroke:none"
             d="M 0,0 -79.421,92.149 12.728,12.729 Z" /></g><g
           transform="translate(974.2841,179.2144)"
           id="g64"><path
             id="path66"
             style="fill:#981914;fill-opacity:1;fill-rule:nonzero;stroke:none"
             d="M 0,0 -79.421,92.149 12.728,12.729 Z" /></g><g
           transform="translate(974.2841,118.4302)"
           id="g68"><path
             id="path70"
             style="fill:#981914;fill-opacity:1;fill-rule:nonzero;stroke:none"
             d="M 0,0 -79.421,92.148 12.728,12.728 Z" /></g><g
           transform="translate(974.2841,57.6461)"
           id="g72"><path
             id="path74"
             style="fill:#981914;fill-opacity:1;fill-rule:nonzero;stroke:none"
             d="M 0,0 -79.421,92.148 12.728,12.728 Z" /></g><g
           transform="translate(974.2841,422.3521)"
           id="g76"><path
             id="path78"
             style="fill:#981914;fill-opacity:1;fill-rule:nonzero;stroke:none"
             d="M 0,0 -79.421,92.148 12.728,12.728 Z" /></g><g
           transform="translate(974.2841,-3.1381)"
           id="g80"><path
             id="path82"
             style="fill:#981914;fill-opacity:1;fill-rule:nonzero;stroke:none"
             d="M 0,0 -79.421,92.148 12.728,12.728 Z" /></g><g
           transform="translate(974.2841,300.7833)"
           id="g84"><path
             id="path86"
             style="fill:#981914;fill-opacity:1;fill-rule:nonzero;stroke:none"
             d="M 0,0 -79.421,92.148 12.728,12.728 Z" /></g><g
           transform="translate(4.8319,515.565)"
           id="g88"><path
             id="path90"
             style="fill:#981914;fill-opacity:1;fill-rule:nonzero;stroke:none"
             d="M 0,0 C 0.188,2.267 0.339,4.537 0.526,6.804 1.262,7.506 2.144,8.002 3.112,8.346 L 286.336,-249.367 -0.791,-551.979 v 14.16 l 274.225,289.014 z" /></g><g
           transform="translate(4.8319,515.565)"
           id="g92"><path
             id="path94"
             style="fill:none;stroke:#981914;stroke-width:2;stroke-linecap:butt;stroke-linejoin:miter;stroke-miterlimit:10;stroke-dasharray:none;stroke-opacity:1"
             d="M 0,0 C 0.188,2.267 0.339,4.537 0.526,6.804 1.262,7.506 2.144,8.002 3.112,8.346 L 286.336,-249.367 -0.791,-551.979 v 14.16 l 274.225,289.014 z" /></g><g
           transform="translate(8.6303,525.2252)"
           id="g96"><path
             id="path98"
             style="fill:none;stroke:#981914;stroke-width:4;stroke-linecap:butt;stroke-linejoin:miter;stroke-miterlimit:10;stroke-dasharray:none;stroke-opacity:1"
             d="M 0,0 H -3.903 V -72.44" /></g></g></g></g></svg>