<?xml version="1.0" encoding="UTF-8" standalone="no"?>
<svg
   xmlns:dc="http://purl.org/dc/elements/1.1/"
   xmlns:cc="http://creativecommons.org/ns#"
   xmlns:rdf="http://www.w3.org/1999/02/22-rdf-syntax-ns#"
   xmlns:svg="http://www.w3.org/2000/svg"
   xmlns="http://www.w3.org/2000/svg"
   viewBox="0 0 666.66669 666.66669"
   height="666.66669"
   width="666.66669"
   xml:space="preserve"
   id="svg2"
   version="1.1"><metadata
     id="metadata8"><rdf:RDF><cc:Work
         rdf:about=""><dc:format>image/svg+xml</dc:format><dc:type
           rdf:resource="http://purl.org/dc/dcmitype/StillImage" /></cc:Work></rdf:RDF></metadata><defs
     id="defs6"><clipPath
       id="clipPath30"
       clipPathUnits="userSpaceOnUse"><path
         id="path28"
         d="M 0,500 H 500 V 0 H 0 Z" /></clipPath></defs><g
     transform="matrix(1.3333333,0,0,-1.3333333,0,666.66667)"
     id="g10"><g
       transform="translate(110.1784,287.0714)"
       id="g12"><path
         id="path14"
         style="fill:none;stroke:#b2120c;stroke-width:4;stroke-linecap:butt;stroke-linejoin:miter;stroke-miterlimit:10;stroke-dasharray:none;stroke-opacity:1"
         d="M 0,0 30.857,-70.393 55.929,0 h 223.714 l -46.393,-73.285 46.393,-0.858" /></g><g
       transform="translate(165.6394,242.3936)"
       id="g16"><path
         id="path18"
         style="fill:none;stroke:#b2120c;stroke-width:4;stroke-linecap:butt;stroke-linejoin:miter;stroke-miterlimit:10;stroke-dasharray:none;stroke-opacity:1"
         d="M 0,0 H 32.438" /></g><g
       transform="translate(218.1784,279.5714)"
       id="g20"><path
         id="path22"
         style="fill:none;stroke:#b2120c;stroke-width:4;stroke-linecap:butt;stroke-linejoin:miter;stroke-miterlimit:10;stroke-dasharray:none;stroke-opacity:1"
         d="M 0,0 V -62.893 H 25.071" /></g><g
       id="g24"><g
         clip-path="url(#clipPath30)"
         id="g26"><g
           transform="translate(279.8932,244.1612)"
           id="g32"><path
             id="path34"
             style="fill:none;stroke:#b2120c;stroke-width:4;stroke-linecap:butt;stroke-linejoin:miter;stroke-miterlimit:10;stroke-dasharray:none;stroke-opacity:1"
             d="m 0,0 c 0,-16.776 -8.635,-30.375 -19.286,-30.375 -10.651,0 -19.286,13.599 -19.286,30.375 0,16.775 8.635,30.375 19.286,30.375 C -8.635,30.375 0,16.775 0,0 Z" /></g><g
           transform="translate(293.3932,287.0714)"
           id="g36"><path
             id="path38"
             style="fill:none;stroke:#b2120c;stroke-width:4;stroke-linecap:butt;stroke-linejoin:miter;stroke-miterlimit:10;stroke-dasharray:none;stroke-opacity:1"
             d="M 0,0 V -74.143" /></g><g
           transform="translate(307.8571,262.0001)"
           id="g40"><path
             id="path42"
             style="fill:none;stroke:#b2120c;stroke-width:4;stroke-linecap:butt;stroke-linejoin:miter;stroke-miterlimit:10;stroke-dasharray:none;stroke-opacity:1"
             d="M 0,0 V -47.321" /></g><g
           transform="translate(325.2145,248.9825)"
           id="g44"><path
             id="path46"
             style="fill:none;stroke:#b2120c;stroke-width:4;stroke-linecap:butt;stroke-linejoin:miter;stroke-miterlimit:10;stroke-dasharray:none;stroke-opacity:1"
             d="M 0,0 C 10.845,-1.018 19.637,6.248 20.57,13.88 21.632,22.55 12.712,32.994 0,32.304 v -67.5" /></g><g
           transform="translate(150.571,214.6788)"
           id="g48"><path
             id="path50"
             style="fill:none;stroke:#b2120c;stroke-width:4;stroke-linecap:butt;stroke-linejoin:miter;stroke-miterlimit:10;stroke-dasharray:none;stroke-opacity:1"
             d="M 0,0 33.669,61.928 58.715,0.958" /></g></g></g></g></svg>